<svg id="Layer_1" data-name="Layer 1" xmlns="http://www.w3.org/2000/svg" xmlns:xlink="http://www.w3.org/1999/xlink" viewBox="0 0 355.98 294.72"><defs><clipPath id="clip-path" transform="translate(-247.8 -149.96)"><rect x="257.67" y="149.96" width="336.17" height="227.47" style="fill:none"/></clipPath><clipPath id="clip-path-2" transform="translate(-247.8 -149.96)"><rect x="297.23" y="277.61" width="7.18" height="7.78" style="fill:none"/></clipPath><clipPath id="clip-path-3" transform="translate(-247.8 -149.96)"><rect x="312.18" y="277.61" width="7.18" height="7.78" style="fill:none"/></clipPath><clipPath id="clip-path-4" transform="translate(-247.8 -149.96)"><rect x="297.23" y="293.82" width="7.18" height="7.77" style="fill:none"/></clipPath><clipPath id="clip-path-5" transform="translate(-247.8 -149.96)"><rect x="312.18" y="293.82" width="7.18" height="7.77" style="fill:none"/></clipPath><clipPath id="clip-path-6" transform="translate(-247.8 -149.96)"><rect x="328.33" y="293.82" width="7.18" height="7.77" style="fill:none"/></clipPath><clipPath id="clip-path-7" transform="translate(-247.8 -149.96)"><rect x="328.33" y="310.02" width="7.18" height="7.78" style="fill:none"/></clipPath><clipPath id="clip-path-8" transform="translate(-247.8 -149.96)"><rect x="328.33" y="326.22" width="7.18" height="7.78" style="fill:none"/></clipPath><clipPath id="clip-path-9" transform="translate(-247.8 -149.96)"><rect x="328.33" y="342.43" width="7.18" height="7.77" style="fill:none"/></clipPath><clipPath id="clip-path-10" transform="translate(-247.8 -149.96)"><rect x="328.33" y="358.63" width="7.18" height="7.78" style="fill:none"/></clipPath><clipPath id="clip-path-11" transform="translate(-247.8 -149.96)"><rect x="328.33" y="374.83" width="7.18" height="7.78" style="fill:none"/></clipPath><clipPath id="clip-path-12" transform="translate(-247.8 -149.96)"><rect x="297.23" y="310.02" width="7.18" height="7.78" style="fill:none"/></clipPath><clipPath id="clip-path-13" transform="translate(-247.8 -149.96)"><rect x="312.18" y="310.02" width="7.18" height="7.78" style="fill:none"/></clipPath><clipPath id="clip-path-14" transform="translate(-247.8 -149.96)"><rect x="297.23" y="326.22" width="7.18" height="7.78" style="fill:none"/></clipPath><clipPath id="clip-path-15" transform="translate(-247.8 -149.96)"><rect x="312.18" y="326.22" width="7.18" height="7.78" style="fill:none"/></clipPath><clipPath id="clip-path-16" transform="translate(-247.8 -149.96)"><rect x="297.23" y="342.43" width="7.18" height="7.77" style="fill:none"/></clipPath><clipPath id="clip-path-17" transform="translate(-247.8 -149.96)"><rect x="312.18" y="342.43" width="7.18" height="7.77" style="fill:none"/></clipPath><clipPath id="clip-path-18" transform="translate(-247.8 -149.96)"><rect x="297.23" y="358.63" width="7.18" height="7.78" style="fill:none"/></clipPath><clipPath id="clip-path-19" transform="translate(-247.8 -149.96)"><rect x="264.33" y="367.7" width="7.18" height="7.78" style="fill:none"/></clipPath><clipPath id="clip-path-20" transform="translate(-247.8 -149.96)"><rect x="367.8" y="350.2" width="7.18" height="7.78" style="fill:none"/></clipPath><clipPath id="clip-path-21" transform="translate(-247.8 -149.96)"><rect x="382.16" y="350.2" width="7.18" height="7.78" style="fill:none"/></clipPath><clipPath id="clip-path-22" transform="translate(-247.8 -149.96)"><rect x="532.78" y="159.65" width="7.18" height="7.78" style="fill:none"/></clipPath><clipPath id="clip-path-23" transform="translate(-247.8 -149.96)"><rect x="541.75" y="159.65" width="7.18" height="7.78" style="fill:none"/></clipPath><clipPath id="clip-path-24" transform="translate(-247.8 -149.96)"><rect x="532.78" y="175.85" width="7.18" height="7.78" style="fill:none"/></clipPath><clipPath id="clip-path-25" transform="translate(-247.8 -149.96)"><rect x="541.75" y="175.85" width="7.18" height="7.78" style="fill:none"/></clipPath><clipPath id="clip-path-26" transform="translate(-247.8 -149.96)"><rect x="532.78" y="192.06" width="7.18" height="7.78" style="fill:none"/></clipPath><clipPath id="clip-path-27" transform="translate(-247.8 -149.96)"><rect x="541.75" y="192.06" width="7.18" height="7.78" style="fill:none"/></clipPath><clipPath id="clip-path-28" transform="translate(-247.8 -149.96)"><rect x="532.78" y="208.26" width="7.18" height="7.78" style="fill:none"/></clipPath><clipPath id="clip-path-29" transform="translate(-247.8 -149.96)"><rect x="541.75" y="208.26" width="7.18" height="7.78" style="fill:none"/></clipPath><clipPath id="clip-path-30" transform="translate(-247.8 -149.96)"><rect x="532.78" y="224.46" width="7.18" height="7.78" style="fill:none"/></clipPath><clipPath id="clip-path-31" transform="translate(-247.8 -149.96)"><rect x="541.75" y="224.46" width="7.18" height="7.78" style="fill:none"/></clipPath><clipPath id="clip-path-32" transform="translate(-247.8 -149.96)"><rect x="532.78" y="240.67" width="7.18" height="7.78" style="fill:none"/></clipPath><clipPath id="clip-path-33" transform="translate(-247.8 -149.96)"><rect x="541.75" y="240.67" width="7.18" height="7.78" style="fill:none"/></clipPath><clipPath id="clip-path-34" transform="translate(-247.8 -149.96)"><rect x="532.78" y="256.87" width="7.18" height="7.78" style="fill:none"/></clipPath><clipPath id="clip-path-35" transform="translate(-247.8 -149.96)"><rect x="541.75" y="256.87" width="7.18" height="7.78" style="fill:none"/></clipPath><clipPath id="clip-path-36" transform="translate(-247.8 -149.96)"><rect x="532.78" y="273.08" width="7.18" height="7.77" style="fill:none"/></clipPath><clipPath id="clip-path-37" transform="translate(-247.8 -149.96)"><rect x="541.75" y="273.08" width="7.18" height="7.77" style="fill:none"/></clipPath><clipPath id="clip-path-38" transform="translate(-247.8 -149.96)"><rect x="532.78" y="289.28" width="7.18" height="7.78" style="fill:none"/></clipPath><clipPath id="clip-path-39" transform="translate(-247.8 -149.96)"><rect x="541.75" y="289.28" width="7.18" height="7.78" style="fill:none"/></clipPath><clipPath id="clip-path-40" transform="translate(-247.8 -149.96)"><rect x="471.77" y="289.28" width="7.18" height="7.78" style="fill:none"/></clipPath><clipPath id="clip-path-41" transform="translate(-247.8 -149.96)"><rect x="487.32" y="289.28" width="7.18" height="7.78" style="fill:none"/></clipPath><clipPath id="clip-path-42" transform="translate(-247.8 -149.96)"><rect x="502.88" y="289.28" width="7.18" height="7.78" style="fill:none"/></clipPath><clipPath id="clip-path-43" transform="translate(-247.8 -149.96)"><rect x="471.77" y="324.28" width="7.18" height="7.78" style="fill:none"/></clipPath><clipPath id="clip-path-44" transform="translate(-247.8 -149.96)"><rect x="487.32" y="324.28" width="7.18" height="7.78" style="fill:none"/></clipPath><clipPath id="clip-path-45" transform="translate(-247.8 -149.96)"><rect x="502.88" y="324.28" width="7.18" height="7.78" style="fill:none"/></clipPath><clipPath id="clip-path-46" transform="translate(-247.8 -149.96)"><rect x="471.77" y="359.28" width="7.18" height="7.78" style="fill:none"/></clipPath><clipPath id="clip-path-47" transform="translate(-247.8 -149.96)"><rect x="487.32" y="359.28" width="7.18" height="7.78" style="fill:none"/></clipPath><clipPath id="clip-path-48" transform="translate(-247.8 -149.96)"><rect x="502.88" y="359.28" width="7.18" height="7.78" style="fill:none"/></clipPath><clipPath id="clip-path-49" transform="translate(-247.8 -149.96)"><rect x="532.78" y="305.48" width="7.18" height="7.78" style="fill:none"/></clipPath><clipPath id="clip-path-50" transform="translate(-247.8 -149.96)"><rect x="541.75" y="305.48" width="7.18" height="7.78" style="fill:none"/></clipPath><clipPath id="clip-path-51" transform="translate(-247.8 -149.96)"><rect x="532.78" y="321.69" width="7.18" height="7.77" style="fill:none"/></clipPath><clipPath id="clip-path-52" transform="translate(-247.8 -149.96)"><rect x="541.75" y="321.69" width="7.18" height="7.77" style="fill:none"/></clipPath><clipPath id="clip-path-53" transform="translate(-247.8 -149.96)"><rect x="532.78" y="337.89" width="7.18" height="7.78" style="fill:none"/></clipPath><clipPath id="clip-path-54" transform="translate(-247.8 -149.96)"><rect x="541.75" y="337.89" width="7.18" height="7.78" style="fill:none"/></clipPath><clipPath id="clip-path-55" transform="translate(-247.8 -149.96)"><rect x="556.71" y="321.69" width="7.18" height="7.77" style="fill:none"/></clipPath><clipPath id="clip-path-56" transform="translate(-247.8 -149.96)"><rect x="573.45" y="321.69" width="7.18" height="7.77" style="fill:none"/></clipPath><clipPath id="clip-path-57" transform="translate(-247.8 -149.96)"><rect x="556.71" y="337.24" width="7.18" height="7.78" style="fill:none"/></clipPath><clipPath id="clip-path-58" transform="translate(-247.8 -149.96)"><rect x="573.45" y="337.24" width="7.18" height="7.78" style="fill:none"/></clipPath><clipPath id="clip-path-59" transform="translate(-247.8 -149.96)"><rect x="556.71" y="352.8" width="7.18" height="7.77" style="fill:none"/></clipPath><clipPath id="clip-path-60" transform="translate(-247.8 -149.96)"><rect x="573.45" y="352.8" width="7.18" height="7.77" style="fill:none"/></clipPath><clipPath id="clip-path-61" transform="translate(-247.8 -149.96)"><rect x="556.71" y="368.35" width="7.18" height="7.78" style="fill:none"/></clipPath><clipPath id="clip-path-62" transform="translate(-247.8 -149.96)"><rect x="573.45" y="368.35" width="7.18" height="7.78" style="fill:none"/></clipPath><clipPath id="clip-path-63" transform="translate(-247.8 -149.96)"><rect x="532.78" y="354.09" width="7.18" height="7.78" style="fill:none"/></clipPath><clipPath id="clip-path-64" transform="translate(-247.8 -149.96)"><rect x="541.75" y="354.09" width="7.18" height="7.78" style="fill:none"/></clipPath><clipPath id="clip-path-65" transform="translate(-247.8 -149.96)"><rect x="532.78" y="370.3" width="7.18" height="7.77" style="fill:none"/></clipPath><clipPath id="clip-path-66" transform="translate(-247.8 -149.96)"><rect x="541.75" y="370.3" width="7.18" height="7.77" style="fill:none"/></clipPath><clipPath id="clip-path-67" transform="translate(-247.8 -149.96)"><rect x="312.18" y="358.63" width="7.18" height="7.78" style="fill:none"/></clipPath><clipPath id="clip-path-68" transform="translate(-247.8 -149.96)"><rect x="297.23" y="374.83" width="7.18" height="7.78" style="fill:none"/></clipPath><clipPath id="clip-path-69" transform="translate(-247.8 -149.96)"><rect x="312.18" y="374.83" width="7.18" height="7.78" style="fill:none"/></clipPath><clipPath id="clip-path-70" transform="translate(-247.8 -149.96)"><rect x="297.23" y="391.04" width="7.18" height="7.78" style="fill:none"/></clipPath><clipPath id="clip-path-71" transform="translate(-247.8 -149.96)"><rect x="312.18" y="391.04" width="7.18" height="7.78" style="fill:none"/></clipPath><clipPath id="clip-path-72" transform="translate(-247.8 -149.96)"><rect x="297.23" y="407.24" width="7.18" height="7.78" style="fill:none"/></clipPath><clipPath id="clip-path-73" transform="translate(-247.8 -149.96)"><rect x="312.18" y="407.24" width="7.18" height="7.78" style="fill:none"/></clipPath><clipPath id="clip-path-74" transform="translate(-247.8 -149.96)"><rect x="456.92" y="379.93" width="60.81" height="64.75" style="fill:none"/></clipPath><clipPath id="clip-path-75" transform="translate(-247.8 -149.96)"><rect x="566.97" y="409.98" width="12.84" height="34.7" style="fill:none"/></clipPath><clipPath id="clip-path-76" transform="translate(-247.8 -149.96)"><rect x="348.76" y="409.98" width="60.81" height="34.7" style="fill:none"/></clipPath><clipPath id="clip-path-77" transform="translate(-247.8 -149.96)"><rect x="256.05" y="409.98" width="23.13" height="34.7" style="fill:none"/></clipPath><clipPath id="clip-path-78" transform="translate(-247.8 -149.96)"><rect x="482.04" y="379.93" width="10.57" height="64.75" style="fill:none"/></clipPath><clipPath id="clip-path-79" transform="translate(-247.8 -149.96)"><rect x="407.87" y="371.74" width="32.7" height="17.85" style="fill:none"/></clipPath><clipPath id="clip-path-80" transform="translate(-247.8 -149.96)"><rect x="431.78" y="195.42" width="123.68" height="200.1" style="fill:none"/></clipPath><clipPath id="clip-path-81" transform="translate(-247.8 -149.96)"><path d="M364.67,437.1s-.71,6.16,0,6.64,3.55.71,7.11,0,7.59-.48,11.38-1.9,9.49-4.74,9-6.16c-.33-1-2.59-.95-5-.91-1.06,0-2.14,0-3.09,0a79.54,79.54,0,0,1-9.48-1.9Z" style="fill:none"/></clipPath><clipPath id="clip-path-82" transform="translate(-247.8 -149.96)"><rect x="364.35" y="433.27" width="27.83" height="10.91" style="fill:none"/></clipPath><clipPath id="clip-path-83" transform="translate(-247.8 -149.96)"><path d="M309.41,429.75s-2.6,4-4,5-5,3.79-5.69,6.16,2.61,3.32,5.46,3.09,6.16,0,7.82-2.61,4.74-10.67,4.74-10.67a24.76,24.76,0,0,0-6.44-1.31,3.93,3.93,0,0,0-1.86.36" style="fill:none"/></clipPath><clipPath id="clip-path-84" transform="translate(-247.8 -149.96)"><rect x="299.59" y="429.39" width="16.06" height="14.62" style="fill:none"/></clipPath><clipPath id="clip-path-85" transform="translate(-247.8 -149.96)"><path d="M410.19,248.41l4.24,7.43-7.12-6.22-.91,1.06,6.06,6.82-.75,2.88-6.52-7.73L404,253.87l5.6,8.18-5.75-3.94-.61,1.21,3.79,5.3s-3.33.76-3.94,2.58a4.82,4.82,0,0,0-.15,3l-2.58,2.27,2.73,3.79s10.15-11.06,11.06-12.12,1.52-8.49,1.52-9.24-4.1-7.28-4.1-7.28Z" style="fill:none"/></clipPath><clipPath id="clip-path-86" transform="translate(-247.8 -149.96)"><rect x="400.34" y="247.65" width="15.3" height="28.64" style="fill:none"/></clipPath><clipPath id="clip-path-87" transform="translate(-247.8 -149.96)"><rect x="400.34" y="262.51" width="14.38" height="13.78" style="fill:none"/></clipPath><clipPath id="clip-path-88" transform="translate(-247.8 -149.96)"><path d="M366.09,273.71c2.42,5.45,12.9,24.43,13.36,24.28s1.66-.91,5-2.73,21.65-16.7,21.65-16.7L401,271.14l-13.63,6.4a59.83,59.83,0,0,1-4.87-10.71c-1.82-5.6-8.53-23.71-8.53-23.71s-10.25,25.14-7.83,30.59" style="fill:none"/></clipPath><clipPath id="clip-path-89" transform="translate(-247.8 -149.96)"><rect x="365.72" y="253.75" width="38.15" height="44.24" style="fill:none"/></clipPath><clipPath id="clip-path-90" transform="translate(-247.8 -149.96)"><rect x="329.7" y="270.57" width="39.48" height="22.48" style="fill:none"/></clipPath><clipPath id="clip-path-91" transform="translate(-247.8 -149.96)"><rect x="319.81" y="263.24" width="7.1" height="49.46" style="fill:none"/></clipPath><clipPath id="clip-path-92" transform="translate(-247.8 -149.96)"><path d="M338.26,209.18a11.4,11.4,0,0,0-.29,7c.59,1.49,2.38,2.53,2.53,1.64s.3-8.5.3-8.5-.77-1-1.54-1c-.35,0-.71.21-1,.83" style="fill:none"/></clipPath><clipPath id="clip-path-93" transform="translate(-247.8 -149.96)"><rect x="337.55" y="208.35" width="3.25" height="9.81" style="fill:none"/></clipPath><clipPath id="clip-path-94" transform="translate(-247.8 -149.96)"><rect x="341.9" y="222.13" width="16.95" height="21.87" style="fill:none"/></clipPath><clipPath id="clip-path-95" transform="translate(-247.8 -149.96)"><rect x="341.9" y="223.67" width="16.34" height="14.74" style="fill:none"/></clipPath><clipPath id="clip-path-96" transform="translate(-247.8 -149.96)"><path d="M342.49,200c-1.63,3.41-3.72,19.33-3.72,22.45s2.23,8.77,7.88,8.92a11.37,11.37,0,0,0,9.67-4.46c.74-1.19,3.12-5.06,3.12-5.06a27.19,27.19,0,0,0,3.87-1.34c2.23-1,1.93-4.31,1.93-6.69s-2.82-.59-2.82-.59l0,0c1.33-3.56,3-8.43,3-10.58,0-3.57-4.16-9.22-10.11-9.81a10.46,10.46,0,0,0-1.11-.06,13.86,13.86,0,0,0-11.68,7.2" style="fill:none"/></clipPath><clipPath id="clip-path-97" transform="translate(-247.8 -149.96)"><rect x="338.77" y="192.78" width="26.61" height="38.57" style="fill:none"/></clipPath><clipPath id="clip-path-98" transform="translate(-247.8 -149.96)"><rect x="338.77" y="192.78" width="18.42" height="38.57" style="fill:none"/></clipPath><clipPath id="clip-path-99" transform="translate(-247.8 -149.96)"><path d="M293.94,338c.18,1.6,4,2.47,8.72,3.74,6.58,1.78,33.08,4.62,36.63,4.45s3-5.87,3.2-6.94,2.32-29,2.32-29l-4.27-.53L300.88,307s-7.12,29.34-6.94,30.94" style="fill:none"/></clipPath><clipPath id="clip-path-100" transform="translate(-247.8 -149.96)"><rect x="293.94" y="307.03" width="50.87" height="39.13" style="fill:none"/></clipPath><clipPath id="clip-path-101" transform="translate(-247.8 -149.96)"><path d="M335.56,344.73c0,1.25,7.11,2.31,8,0s3.91-33.61,3.91-34.15-6.93-.88-6.93-.88-5,33.79-5,35" style="fill:none"/></clipPath><clipPath id="clip-path-102" transform="translate(-247.8 -149.96)"><rect x="335.56" y="309.69" width="11.92" height="36.4" style="fill:none"/></clipPath><clipPath id="clip-path-103" transform="translate(-247.8 -149.96)"><path d="M346.51,300.94c-1.19,0-4.17-.15-5.51-.15s-5.65,2.67-6.09,2.67H331l-3.86,6.69s2.08,2.09,2.52,2.38,5.06,3.27,6.84,3.72,5.06,1,5.8.6a10.49,10.49,0,0,0,1.79-1.64,2.57,2.57,0,0,0,1.34-1.49c.29-1,.74-2.52.74-2.52s1.78-.3,2.82-.6.9-2.23.6-2.68-8.18-3.56-8.18-3.56,3.42-.45,4.31-.6,2.68-1,2.68-2.53c0-.57-.11-.75-.31-.75s-.89.46-1.62.46" style="fill:none"/></clipPath><clipPath id="clip-path-104" transform="translate(-247.8 -149.96)"><rect x="327.18" y="300.48" width="22.67" height="16.52" style="fill:none"/></clipPath><clipPath id="clip-path-105" transform="translate(-247.8 -149.96)"><rect x="327.18" y="302.18" width="22.58" height="14.82" style="fill:none"/></clipPath><clipPath id="clip-path-106" transform="translate(-247.8 -149.96)"><rect x="341.4" y="301.04" width="7.04" height="3.31" style="fill:none"/></clipPath><clipPath id="clip-path-107" transform="translate(-247.8 -149.96)"><path d="M312.61,243.54c-.45,1.79-15.76,42.2-15.76,43.69s17.69,15.34,21.41,18.46a51.17,51.17,0,0,0,6.83,4.91l5.8-8.62s-10.12-12-11.75-15a33.09,33.09,0,0,0-3.92-5.48l12-23.55-5.95-19.77s-8.18,3.57-8.62,5.35" style="fill:none"/></clipPath><clipPath id="clip-path-108" transform="translate(-247.8 -149.96)"><rect x="296.85" y="242.48" width="29.05" height="68.12" style="fill:none"/></clipPath></defs><path d="M580.11,230.55S557.32,187.73,507,181.38,421.52,206,384.48,221.82c-19.4,8.31-41.55,5.08-62.14,9.1-65.84,12.86-90.65,93.39-63.22,139.2,23.74,39.65,65.53,60.26,129.16,65s108.26,10.31,165.24-28.55,53.18-119.74,26.59-176" transform="translate(-247.8 -149.96)" style="fill:#c5d92d"/><path d="M580.11,230.55S557.32,187.73,507,181.38,421.52,206,384.48,221.82c-19.4,8.31-41.55,5.08-62.14,9.1-65.84,12.86-90.65,93.39-63.22,139.2,23.74,39.65,65.53,60.26,129.16,65s108.26,10.31,165.24-28.55,53.18-119.74,26.59-176" transform="translate(-247.8 -149.96)" style="fill:#2b90ec"/><g style="opacity:0.3000029921531677"><g style="clip-path:url(#clip-path)"><polyline points="10.38 227.47 10.38 205.62 43.56 205.62 43.56 106.09 76.74 106.09 76.74 127.94 95.33 127.94 95.33 192.27 140.46 192.27 140.46 157.07 161.69 157.07 161.69 176.49 177.32 176.49 184.32 176.49 184.89 183.77 203.22 183.77 203.22 154.64 217.82 154.64 217.82 63.61 253.66 63.61 253.66 98.81 280.21 98.81 280.21 0.5 309.41 0.5 309.41 163.14 339.94 163.14 339.94 203.19 346.05 203.19" style="fill:none;stroke:#000;stroke-miterlimit:10"/></g></g><g style="opacity:0.3000029921531677"><g style="clip-path:url(#clip-path-2)"><rect x="49.43" y="127.65" width="7.18" height="7.78"/></g></g><g style="opacity:0.3000029921531677"><g style="clip-path:url(#clip-path-3)"><rect x="64.38" y="127.65" width="7.18" height="7.78"/></g></g><g style="opacity:0.3000029921531677"><g style="clip-path:url(#clip-path-4)"><rect x="49.43" y="143.85" width="7.18" height="7.78"/></g></g><g style="opacity:0.3000029921531677"><g style="clip-path:url(#clip-path-5)"><rect x="64.38" y="143.85" width="7.18" height="7.78"/></g></g><g style="opacity:0.3000029921531677"><g style="clip-path:url(#clip-path-6)"><rect x="80.53" y="143.85" width="7.18" height="7.78"/></g></g><g style="opacity:0.3000029921531677"><g style="clip-path:url(#clip-path-7)"><rect x="80.53" y="160.06" width="7.18" height="7.78"/></g></g><g style="opacity:0.3000029921531677"><g style="clip-path:url(#clip-path-8)"><rect x="80.53" y="176.26" width="7.18" height="7.78"/></g></g><g style="opacity:0.3000029921531677"><g style="clip-path:url(#clip-path-9)"><rect x="80.53" y="192.47" width="7.18" height="7.78"/></g></g><g style="opacity:0.3000029921531677"><g style="clip-path:url(#clip-path-10)"><rect x="80.53" y="208.67" width="7.18" height="7.78"/></g></g><g style="opacity:0.3000029921531677"><g style="clip-path:url(#clip-path-11)"><rect x="80.53" y="224.87" width="7.18" height="7.78"/></g></g><g style="opacity:0.3000029921531677"><g style="clip-path:url(#clip-path-12)"><rect x="49.43" y="160.06" width="7.18" height="7.78"/></g></g><g style="opacity:0.3000029921531677"><g style="clip-path:url(#clip-path-13)"><rect x="64.38" y="160.06" width="7.18" height="7.78"/></g></g><g style="opacity:0.3000029921531677"><g style="clip-path:url(#clip-path-14)"><rect x="49.43" y="176.26" width="7.18" height="7.78"/></g></g><g style="opacity:0.3000029921531677"><g style="clip-path:url(#clip-path-15)"><rect x="64.38" y="176.26" width="7.18" height="7.78"/></g></g><g style="opacity:0.3000029921531677"><g style="clip-path:url(#clip-path-16)"><rect x="49.43" y="192.47" width="7.18" height="7.78"/></g></g><g style="opacity:0.3000029921531677"><g style="clip-path:url(#clip-path-17)"><rect x="64.38" y="192.47" width="7.18" height="7.78"/></g></g><g style="opacity:0.3000029921531677"><g style="clip-path:url(#clip-path-18)"><rect x="49.43" y="208.67" width="7.18" height="7.78"/></g></g><g style="opacity:0.3000029921531677"><g style="clip-path:url(#clip-path-19)"><rect x="16.53" y="217.74" width="7.18" height="7.78"/></g></g><g style="opacity:0.3000029921531677"><g style="clip-path:url(#clip-path-20)"><rect x="120.01" y="200.24" width="7.18" height="7.78"/></g></g><g style="opacity:0.3000029921531677"><g style="clip-path:url(#clip-path-21)"><rect x="134.36" y="200.24" width="7.18" height="7.78"/></g></g><g style="opacity:0.3000029921531677"><g style="clip-path:url(#clip-path-22)"><rect x="284.98" y="9.69" width="7.18" height="7.78"/></g></g><g style="opacity:0.3000029921531677"><g style="clip-path:url(#clip-path-23)"><rect x="293.95" y="9.69" width="7.18" height="7.78"/></g></g><g style="opacity:0.3000029921531677"><g style="clip-path:url(#clip-path-24)"><rect x="284.98" y="25.89" width="7.18" height="7.78"/></g></g><g style="opacity:0.3000029921531677"><g style="clip-path:url(#clip-path-25)"><rect x="293.95" y="25.89" width="7.18" height="7.78"/></g></g><g style="opacity:0.3000029921531677"><g style="clip-path:url(#clip-path-26)"><rect x="284.98" y="42.1" width="7.18" height="7.78"/></g></g><g style="opacity:0.3000029921531677"><g style="clip-path:url(#clip-path-27)"><rect x="293.95" y="42.1" width="7.18" height="7.78"/></g></g><g style="opacity:0.3000029921531677"><g style="clip-path:url(#clip-path-28)"><rect x="284.98" y="58.3" width="7.18" height="7.78"/></g></g><g style="opacity:0.3000029921531677"><g style="clip-path:url(#clip-path-29)"><rect x="293.95" y="58.3" width="7.18" height="7.78"/></g></g><g style="opacity:0.3000029921531677"><g style="clip-path:url(#clip-path-30)"><rect x="284.98" y="74.5" width="7.18" height="7.78"/></g></g><g style="opacity:0.3000029921531677"><g style="clip-path:url(#clip-path-31)"><rect x="293.95" y="74.5" width="7.18" height="7.78"/></g></g><g style="opacity:0.3000029921531677"><g style="clip-path:url(#clip-path-32)"><rect x="284.98" y="90.71" width="7.18" height="7.78"/></g></g><g style="opacity:0.3000029921531677"><g style="clip-path:url(#clip-path-33)"><rect x="293.95" y="90.71" width="7.18" height="7.78"/></g></g><g style="opacity:0.3000029921531677"><g style="clip-path:url(#clip-path-34)"><rect x="284.98" y="106.91" width="7.18" height="7.78"/></g></g><g style="opacity:0.3000029921531677"><g style="clip-path:url(#clip-path-35)"><rect x="293.95" y="106.91" width="7.18" height="7.78"/></g></g><g style="opacity:0.3000029921531677"><g style="clip-path:url(#clip-path-36)"><rect x="284.98" y="123.11" width="7.18" height="7.78"/></g></g><g style="opacity:0.3000029921531677"><g style="clip-path:url(#clip-path-37)"><rect x="293.95" y="123.11" width="7.18" height="7.78"/></g></g><g style="opacity:0.3000029921531677"><g style="clip-path:url(#clip-path-38)"><rect x="284.98" y="139.32" width="7.18" height="7.78"/></g></g><g style="opacity:0.3000029921531677"><g style="clip-path:url(#clip-path-39)"><rect x="293.95" y="139.32" width="7.18" height="7.78"/></g></g><g style="opacity:0.3000029921531677"><g style="clip-path:url(#clip-path-40)"><rect x="223.97" y="139.32" width="7.18" height="7.78"/></g></g><g style="opacity:0.3000029921531677"><g style="clip-path:url(#clip-path-41)"><rect x="239.52" y="139.32" width="7.18" height="7.78"/></g></g><g style="opacity:0.3000029921531677"><g style="clip-path:url(#clip-path-42)"><rect x="255.08" y="139.32" width="7.18" height="7.78"/></g></g><g style="opacity:0.3000029921531677"><g style="clip-path:url(#clip-path-43)"><rect x="223.97" y="174.32" width="7.18" height="7.78"/></g></g><g style="opacity:0.3000029921531677"><g style="clip-path:url(#clip-path-44)"><rect x="239.52" y="174.32" width="7.18" height="7.78"/></g></g><g style="opacity:0.3000029921531677"><g style="clip-path:url(#clip-path-45)"><rect x="255.08" y="174.32" width="7.18" height="7.78"/></g></g><g style="opacity:0.3000029921531677"><g style="clip-path:url(#clip-path-46)"><rect x="223.97" y="209.32" width="7.18" height="7.78"/></g></g><g style="opacity:0.3000029921531677"><g style="clip-path:url(#clip-path-47)"><rect x="239.52" y="209.32" width="7.18" height="7.78"/></g></g><g style="opacity:0.3000029921531677"><g style="clip-path:url(#clip-path-48)"><rect x="255.08" y="209.32" width="7.18" height="7.78"/></g></g><g style="opacity:0.3000029921531677"><g style="clip-path:url(#clip-path-49)"><rect x="284.98" y="155.52" width="7.18" height="7.78"/></g></g><g style="opacity:0.3000029921531677"><g style="clip-path:url(#clip-path-50)"><rect x="293.95" y="155.52" width="7.18" height="7.78"/></g></g><g style="opacity:0.3000029921531677"><g style="clip-path:url(#clip-path-51)"><rect x="284.98" y="171.72" width="7.18" height="7.78"/></g></g><g style="opacity:0.3000029921531677"><g style="clip-path:url(#clip-path-52)"><rect x="293.95" y="171.72" width="7.18" height="7.78"/></g></g><g style="opacity:0.3000029921531677"><g style="clip-path:url(#clip-path-53)"><rect x="284.98" y="187.93" width="7.18" height="7.78"/></g></g><g style="opacity:0.3000029921531677"><g style="clip-path:url(#clip-path-54)"><rect x="293.95" y="187.93" width="7.18" height="7.78"/></g></g><g style="opacity:0.3000029921531677"><g style="clip-path:url(#clip-path-55)"><rect x="308.91" y="171.72" width="7.18" height="7.78"/></g></g><g style="opacity:0.3000029921531677"><g style="clip-path:url(#clip-path-56)"><rect x="325.65" y="171.72" width="7.18" height="7.78"/></g></g><g style="opacity:0.3000029921531677"><g style="clip-path:url(#clip-path-57)"><rect x="308.91" y="187.28" width="7.18" height="7.78"/></g></g><g style="opacity:0.3000029921531677"><g style="clip-path:url(#clip-path-58)"><rect x="325.65" y="187.28" width="7.18" height="7.78"/></g></g><g style="opacity:0.3000029921531677"><g style="clip-path:url(#clip-path-59)"><rect x="308.91" y="202.84" width="7.18" height="7.78"/></g></g><g style="opacity:0.3000029921531677"><g style="clip-path:url(#clip-path-60)"><rect x="325.65" y="202.84" width="7.18" height="7.78"/></g></g><g style="opacity:0.3000029921531677"><g style="clip-path:url(#clip-path-61)"><rect x="308.91" y="218.39" width="7.18" height="7.78"/></g></g><g style="opacity:0.3000029921531677"><g style="clip-path:url(#clip-path-62)"><rect x="325.65" y="218.39" width="7.18" height="7.78"/></g></g><g style="opacity:0.3000029921531677"><g style="clip-path:url(#clip-path-63)"><rect x="284.98" y="204.13" width="7.18" height="7.78"/></g></g><g style="opacity:0.3000029921531677"><g style="clip-path:url(#clip-path-64)"><rect x="293.95" y="204.13" width="7.18" height="7.78"/></g></g><g style="opacity:0.3000029921531677"><g style="clip-path:url(#clip-path-65)"><rect x="284.98" y="220.34" width="7.18" height="7.78"/></g></g><g style="opacity:0.3000029921531677"><g style="clip-path:url(#clip-path-66)"><rect x="293.95" y="220.34" width="7.18" height="7.78"/></g></g><g style="opacity:0.3000029921531677"><g style="clip-path:url(#clip-path-67)"><rect x="64.38" y="208.67" width="7.18" height="7.78"/></g></g><g style="opacity:0.3000029921531677"><g style="clip-path:url(#clip-path-68)"><rect x="49.43" y="224.87" width="7.18" height="7.78"/></g></g><g style="opacity:0.3000029921531677"><g style="clip-path:url(#clip-path-69)"><rect x="64.38" y="224.87" width="7.18" height="7.78"/></g></g><g style="opacity:0.3000029921531677"><g style="clip-path:url(#clip-path-70)"><rect x="49.43" y="241.08" width="7.18" height="7.78"/></g></g><g style="opacity:0.3000029921531677"><g style="clip-path:url(#clip-path-71)"><rect x="64.38" y="241.08" width="7.18" height="7.78"/></g></g><g style="opacity:0.3000029921531677"><g style="clip-path:url(#clip-path-72)"><rect x="49.43" y="257.28" width="7.18" height="7.78"/></g></g><g style="opacity:0.3000029921531677"><g style="clip-path:url(#clip-path-73)"><rect x="64.38" y="257.28" width="7.18" height="7.78"/></g></g><g style="opacity:0.3000029921531677"><g style="clip-path:url(#clip-path-74)"><polyline points="269.43 262.15 269.43 294.22 209.62 294.22 209.62 230.46 269.43 230.46 269.43 256.44" style="fill:none;stroke:#000;stroke-miterlimit:10"/></g></g><g style="opacity:0.3000029921531677"><g style="clip-path:url(#clip-path-75)"><polyline points="330.3 294.22 319.67 294.22 319.67 260.52 332.02 260.52" style="fill:none;stroke:#000;stroke-miterlimit:10"/></g></g><g style="opacity:0.3000029921531677"><g style="clip-path:url(#clip-path-76)"><polyline points="118.79 260.52 161.28 260.52 161.28 294.22 101.46 294.22 101.46 260.52 113.12 260.52" style="fill:none;stroke:#000;stroke-miterlimit:10"/></g></g><g style="opacity:0.3000029921531677"><g style="clip-path:url(#clip-path-77)"><polyline points="25.21 260.52 30.89 260.52 30.89 294.22 8.76 294.22 8.76 260.52 20.75 260.52" style="fill:none;stroke:#000;stroke-miterlimit:10"/></g></g><g style="opacity:0.3000029921531677"><g style="clip-path:url(#clip-path-78)"><rect x="234.74" y="230.46" width="9.57" height="63.76" style="fill:none;stroke:#000;stroke-miterlimit:10"/></g></g><g style="opacity:0.3000029921531677"><g style="clip-path:url(#clip-path-79)"><polyline points="169.97 239.13 160.57 239.13 160.57 222.28 192.27 222.28 192.27 239.13 178.48 239.13" style="fill:none;stroke:#000;stroke-miterlimit:10"/></g></g><path d="M553.82,423.67H433.42a7.67,7.67,0,0,1-7.67-7.68v-241a7.67,7.67,0,0,1,7.67-7.68h120.4a7.67,7.67,0,0,1,7.67,7.68V416a7.67,7.67,0,0,1-7.67,7.68" transform="translate(-247.8 -149.96)" style="fill:#263238"/><rect x="177.95" y="17.3" width="135.74" height="256.4" rx="7.67" style="fill:none;stroke:#263238;stroke-linecap:round;stroke-linejoin:round"/><rect x="183.98" y="45.45" width="123.68" height="200.1" style="fill:#30a0f2"/><g style="clip-path:url(#clip-path-80)"><path d="M555.46,235.66l-58.67,14.57-9.2-20.72,48.83-34.09h-5.55l-70.68,49.35a1.49,1.49,0,0,0-.27.23l-28.14,30.92v4.72l30.37-33.37,22.78-15.9L493.66,251l-25.51,6.33h-.07a2.17,2.17,0,0,0-.35.15l-.09.05-.07,0a1.79,1.79,0,0,0-.25.22h0L431.78,297v4.73l36.52-40.27c2.89,4.55,7.37,13.41,5.15,18.48-1.23,2.81-4.36,6.17-7.68,9.73-5.69,6.11-11.57,12.43-10.17,18.4,1.5,6.38,2.14,10.46,2.35,12l-.77.21a14.12,14.12,0,0,0-10.32,14.48l.87,13.39-16,1.45v3.19l16.15-1.46,1.23,18.86c0,.1,0,.2,0,.3a1.55,1.55,0,0,0,.05.23l1.61,24.81H454l-1.55-23.7,27-2.15,4,25.85h3.21l-4-26.1,22.57-1.79,8,27.89h3.31l-8.05-28.15,16.17-1.29c11.32,8.94,18.71,17.17,25.28,29.44h3.6c-7-13.46-14.89-22.37-26.84-31.85a1.59,1.59,0,0,0-1-.75c-3.84-3-8.1-6.08-12.86-9.38l16.15-2.5a17,17,0,0,0,14.36-18.89L540.7,310.3a17.89,17.89,0,0,1,14-19.64l.8-.18v-3.25l-1.49.32a21.09,21.09,0,0,0-16.43,23.13l2.58,21.83a13.87,13.87,0,0,1-11.68,15.38l-19.49,3c-1.47-1-3-2-4.56-3.09-13.69-9.21-17.5-21.65-18.29-30.46a48,48,0,0,1,7.14-29.21,1.46,1.46,0,0,0,.41-.59s0,0,0-.06a39.44,39.44,0,0,1,5.52-6.75c11.54-11.21,40.29-22.59,56.27-28.35V249c-15.94,5.67-46.1,17.45-58.48,29.47a41.3,41.3,0,0,0-5.49,6.59l-14.6-5.43c1.63-6.75-3.37-15.82-5.83-19.74l84.4-21Zm-52.84,114.8q2.36,1.57,4.54,3.07a1.59,1.59,0,0,0,.87.59c4.73,3.24,9,6.21,12.77,9.06l-68.55,5.45L450,334.54a10.91,10.91,0,0,1,8-11.21l24.85-6.81c0,.37,0,.75.06,1.13.85,9.49,5,22.9,19.69,32.81M489.76,287.8a51.73,51.73,0,0,0-7,25.45L461,319.2c-.26-1.83-.92-5.81-2.34-11.85-1-4.31,4.52-10.26,9.4-15.5,3-3.26,5.92-6.36,7.58-9.28Z" transform="translate(-247.8 -149.96)" style="fill:#fff"/><path d="M468.14,219.07l-36.36,38.35V262l39.34-41.51a1.59,1.59,0,0,0,.34-1.65l-8.76-23.46h-3.4Z" transform="translate(-247.8 -149.96)" style="fill:#fff"/><path d="M494,321.52a17.37,17.37,0,1,0,17.37-17.37A17.39,17.39,0,0,0,494,321.52m31.56,0a14.19,14.19,0,1,1-14.19-14.19,14.21,14.21,0,0,1,14.19,14.19" transform="translate(-247.8 -149.96)" style="fill:#fff"/><path d="M518.22,227.94a9.47,9.47,0,0,0,8.79,5.94,9.58,9.58,0,0,0,2.3-.28L555.46,227v-3.28l-26.93,6.8a6.27,6.27,0,0,1-5-11.31L555.46,198v-2.61h-1.81l-31.88,21.13a9.49,9.49,0,0,0-3.55,11.39" transform="translate(-247.8 -149.96)" style="fill:#fff"/><path d="M508,220.9a9.12,9.12,0,0,0-9.13,9.12c0,5,9.13,18,9.13,18s9.12-13,9.12-18A9.12,9.12,0,0,0,508,220.9m0,12.48a3.68,3.68,0,1,1,3.68-3.68,3.69,3.69,0,0,1-3.68,3.68" transform="translate(-247.8 -149.96)" style="fill:#263238"/><path d="M508,220.9a9.12,9.12,0,0,0-9.13,9.12c0,5,9.13,18,9.13,18s9.12-13,9.12-18A9.12,9.12,0,0,0,508,220.9Zm0,12.48a3.68,3.68,0,1,1,3.68-3.68A3.69,3.69,0,0,1,508,233.38Z" transform="translate(-247.8 -149.96)" style="fill:none;stroke:#263238;stroke-miterlimit:10"/><line x1="258.52" y1="98.84" x2="257.08" y2="99.24" style="fill:none;stroke:#263238;stroke-linecap:round;stroke-linejoin:round;stroke-width:2px"/><line x1="254.42" y1="99.99" x2="223.85" y2="108.6" style="fill:none;stroke:#263238;stroke-linecap:round;stroke-linejoin:round;stroke-width:2px;stroke-dasharray:2.760999917984009,2.760999917984009"/><path d="M470.32,258.94l-1.44.4s.28.49.73,1.31" transform="translate(-247.8 -149.96)" style="fill:none;stroke:#263238;stroke-linecap:round;stroke-linejoin:round;stroke-width:2px"/><path d="M471,263.21a42.33,42.33,0,0,1,3.72,9.58c1.09,5.46.37,8.36-4,13.09s-12,13.82-13.45,17.45c-1,2.62.74,10.89,1.82,15.32" transform="translate(-247.8 -149.96)" style="fill:none;stroke:#263238;stroke-linecap:round;stroke-linejoin:round;stroke-width:2px;stroke-dasharray:2.9000000953674316,2.9000000953674316"/><path d="M459.41,320.06c.23.9.38,1.45.38,1.45" transform="translate(-247.8 -149.96)" style="fill:none;stroke:#263238;stroke-linecap:round;stroke-linejoin:round;stroke-width:2px"/><path d="M462.09,321.51a2.31,2.31,0,1,0-2.3,2.3,2.3,2.3,0,0,0,2.3-2.3" transform="translate(-247.8 -149.96)" style="fill:#30a0f2"/><path d="M462.09,321.51a2.31,2.31,0,1,0-2.3,2.3A2.3,2.3,0,0,0,462.09,321.51Z" transform="translate(-247.8 -149.96)" style="fill:none;stroke:#263238;stroke-miterlimit:10"/><polygon points="235.27 121.32 235.27 126.43 230.43 128.85 235.27 131.38 235.27 136.11 268.88 136.11 268.88 121.32 235.27 121.32" style="fill:#fff"/><polygon points="235.27 121.32 235.27 126.43 230.43 128.85 235.27 131.38 235.27 136.11 268.88 136.11 268.88 121.32 235.27 121.32" style="fill:none;stroke:#263238;stroke-linecap:round;stroke-linejoin:round"/><path d="M489.12,274.35a.87.87,0,1,0-.87-.87.87.87,0,0,0,.87.87" transform="translate(-247.8 -149.96)" style="fill:#263238"/><path d="M492.14,276.61l-1,.08s-1.48-2-1.59-2a11,11,0,0,0-1.62-.12l-2.29,1.09a.52.52,0,0,0-.29.61l.49,1.58a.43.43,0,0,0,.42.3l.18,0a.53.53,0,0,0,.32-.62l-.37-1.18,1.35-.64-.59,3.47h0l-.59,4.26a.43.43,0,0,0,.41.5h0a.54.54,0,0,0,.52-.45l.57-4.12,1.22,1.82-.2,2.27a.42.42,0,0,0,.43.48.54.54,0,0,0,.52-.48l.22-2.43a.45.45,0,0,0-.07-.28L489.05,279l.47-2.8.94,1.26a.44.44,0,0,0,.35.17h0l1.28-.1a.52.52,0,0,0,.48-.52.42.42,0,0,0-.47-.43" transform="translate(-247.8 -149.96)" style="fill:#263238"/></g><rect x="183.98" y="45.45" width="123.68" height="200.1" style="fill:none;stroke:#263238;stroke-linecap:round;stroke-linejoin:round"/><path d="M507.06,181.41H480.17a1.84,1.84,0,0,1,0-3.67h26.89a1.84,1.84,0,1,1,0,3.67" transform="translate(-247.8 -149.96)" style="fill:#fff"/><path d="M501,406.81a7.33,7.33,0,1,0-7.33,7.33,7.33,7.33,0,0,0,7.33-7.33" transform="translate(-247.8 -149.96)" style="fill:#263238"/><path d="M501,406.81a7.33,7.33,0,1,0-7.33,7.33A7.33,7.33,0,0,0,501,406.81Z" transform="translate(-247.8 -149.96)" style="fill:none;stroke:#fff;stroke-linecap:round;stroke-linejoin:round;stroke-width:0.7039999961853027px"/><rect x="242.1" y="253.13" width="7.43" height="7.43" style="fill:#fff"/><polygon points="53.08 157.06 75.49 87.7 79.22 85.74 56.63 157.42 53.08 157.06" style="fill:#263238"/><polygon points="53.08 157.06 75.49 87.7 79.22 85.74 56.63 157.42 53.08 157.06" style="fill:none;stroke:#263238;stroke-linecap:round;stroke-linejoin:round"/><path d="M374.63,432.83a79.54,79.54,0,0,0,9.48,1.9c3.09.23,7.59-.48,8.07.95s-5.22,4.74-9,6.16-7.82,1.19-11.38,1.9-6.4.47-7.11,0,0-6.64,0-6.64Z" transform="translate(-247.8 -149.96)" style="fill:#fff"/><g style="clip-path:url(#clip-path-81)"><g style="opacity:0.19999699294567108"><g style="clip-path:url(#clip-path-82)"><path d="M392.18,435.79a4.08,4.08,0,0,0-1.85.71c-2.11,1.47-1.79,2.93-11.69,2.93s-7.8-.49-7.8-1.79c0-.87,1.66-3,2.77-4.37l-8.94,3.83s-.71,6.16,0,6.64,3.55.71,7.11,0,7.59-.48,11.38-1.9,9.19-4.57,9-6" transform="translate(-247.8 -149.96)"/></g></g><path d="M364.35,442a35.77,35.77,0,0,0,11.2-.32c6.5-1.14,14-6,16.08-6.33" transform="translate(-247.8 -149.96)" style="fill:none;stroke:#263238;stroke-linecap:round;stroke-linejoin:round"/></g><path d="M374.63,432.83a79.54,79.54,0,0,0,9.48,1.9c3.09.23,7.59-.48,8.07.95s-5.22,4.74-9,6.16-7.82,1.19-11.38,1.9-6.4.47-7.11,0,0-6.64,0-6.64Z" transform="translate(-247.8 -149.96)" style="fill:none;stroke:#263238;stroke-linecap:round;stroke-linejoin:round"/><path d="M309.41,429.75s-2.6,4-4,5-5,3.79-5.69,6.16,2.61,3.32,5.46,3.09,6.16,0,7.82-2.61,4.74-10.67,4.74-10.67-6.16-2.14-8.3-.95" transform="translate(-247.8 -149.96)" style="fill:#fff"/><g style="clip-path:url(#clip-path-83)"><g style="opacity:0.19999699294567108"><g style="clip-path:url(#clip-path-84)"><path d="M314.17,439.12c-.42.14-.85.3-1.3.47-4.22,1.62-5.52-.33-6.17-1.14-.52-.65,6.23-6.18,8.95-8.37-2-.52-4.9-1.07-6.24-.33,0,0-2.6,4-4,5s-5,3.79-5.69,6.16,2.61,3.32,5.46,3.09,6.16,0,7.82-2.61a25.16,25.16,0,0,0,1.2-2.25" transform="translate(-247.8 -149.96)"/></g></g><path d="M299.69,440.89a13,13,0,0,0,8.79,1.3c5.2-1,5.85-3.58,5.85-3.58" transform="translate(-247.8 -149.96)" style="fill:none;stroke:#263238;stroke-linecap:round;stroke-linejoin:round"/></g><path d="M309.41,429.75s-2.6,4-4,5-5,3.79-5.69,6.16,2.61,3.32,5.46,3.09,6.16,0,7.82-2.61,4.74-10.67,4.74-10.67S311.55,428.56,309.41,429.75Z" transform="translate(-247.8 -149.96)" style="fill:none;stroke:#263238;stroke-linecap:round;stroke-linejoin:round"/><path d="M319.61,329.91s.71,28.93.48,29.88-2.61,10.43-3.32,13.75-3.32,12.57-3.09,22.3-2.84,24.66-2.84,24.66-1.9,4-1.66,5a33.2,33.2,0,0,1,.23,4.27s4,.47,6.64.95a2,2,0,0,0,2.61-1.9s2.37-3.08,2.61-5.46S324,414.1,324,414.1s8.65-26.56,10.08-29.88,4-14.47,5.45-18.74,6.64-27,6.64-27,8.3,37.23,8.3,40.55-1.42,14,.24,20.87,7.82,25.85,7.82,25.85-1.18,5.21-1.18,6.16,3.32,5.22,3.32,5.22l10-4.27s-.24-7.35-.24-9,1.19-6.88.71-9-4-4.75-4-6.88,2.85-26.8,2.61-35.81-4-44.82-5.69-49.09-12.1-15.41-16.36-15.88-32,22.76-32,22.76" transform="translate(-247.8 -149.96)" style="fill:#263238"/><path d="M319.61,329.91s.71,28.93.48,29.88-2.61,10.43-3.32,13.75-3.32,12.57-3.09,22.3-2.84,24.66-2.84,24.66-1.9,4-1.66,5a33.2,33.2,0,0,1,.23,4.27s4,.47,6.64.95a2,2,0,0,0,2.61-1.9s2.37-3.08,2.61-5.46S324,414.1,324,414.1s8.65-26.56,10.08-29.88,4-14.47,5.45-18.74,6.64-27,6.64-27,8.3,37.23,8.3,40.55-1.42,14,.24,20.87,7.82,25.85,7.82,25.85-1.18,5.21-1.18,6.16,3.32,5.22,3.32,5.22l10-4.27s-.24-7.35-.24-9,1.19-6.88.71-9-4-4.75-4-6.88,2.85-26.8,2.61-35.81-4-44.82-5.69-49.09-12.1-15.41-16.36-15.88S319.61,329.91,319.61,329.91Z" transform="translate(-247.8 -149.96)" style="fill:none;stroke:#263238;stroke-linecap:round;stroke-linejoin:round"/><path d="M411.76,242.54l-8.54,16.78,6.21,3.79L420,241.82a.79.79,0,0,0-.79-1.13l-5.69.62a2.23,2.23,0,0,0-1.77,1.23" transform="translate(-247.8 -149.96)" style="fill:#263238"/><path d="M411.76,242.54l-8.54,16.78,6.21,3.79L420,241.82a.79.79,0,0,0-.79-1.13l-5.69.62A2.23,2.23,0,0,0,411.76,242.54Z" transform="translate(-247.8 -149.96)" style="fill:none;stroke:#263238;stroke-linecap:round;stroke-linejoin:round"/><path d="M403.07,276.29s10.15-11.06,11.06-12.12,1.52-8.49,1.52-9.24-4.1-7.28-4.1-7.28l-1.36.76,4.24,7.43-7.12-6.22-.91,1.06,6.06,6.82-.75,2.88-6.52-7.73L404,253.87l5.61,8.18-5.76-3.94-.61,1.21,3.79,5.3s-3.33.76-3.94,2.58a4.82,4.82,0,0,0-.15,3l-2.58,2.27Z" transform="translate(-247.8 -149.96)" style="fill:#fff"/><g style="clip-path:url(#clip-path-85)"><g style="opacity:0.10000599920749664"><g style="clip-path:url(#clip-path-86)"><path d="M403.07,276.29s10.15-11.06,11.06-12.12,1.52-8.49,1.52-9.24-4.1-7.28-4.1-7.28l-1.36.76,4.24,7.43-7.12-6.22-.91,1.06,6.06,6.82-.75,2.88-6.52-7.73L404,253.87l5.61,8.18-5.76-3.94-.61,1.21,3.79,5.3s-3.33.76-3.94,2.58a4.82,4.82,0,0,0-.15,3l-2.58,2.27Z" transform="translate(-247.8 -149.96)"/></g></g><g style="opacity:0.19999699294567108"><g style="clip-path:url(#clip-path-87)"><path d="M407,264.62c-.07,0-3.33.78-3.93,2.58a4.82,4.82,0,0,0-.15,3l-2.58,2.27,2.73,3.79s10.15-11.06,11.06-12.12a4.57,4.57,0,0,0,.59-1.66,47.18,47.18,0,0,1-6.43,2.83,3.16,3.16,0,0,1-1.29-.72" transform="translate(-247.8 -149.96)"/></g></g></g><path d="M403.07,276.29s10.15-11.06,11.06-12.12,1.52-8.49,1.52-9.24-4.1-7.28-4.1-7.28l-1.36.76,4.24,7.43-7.12-6.22-.91,1.06,6.06,6.82-.75,2.88-6.52-7.73L404,253.87l5.61,8.18-5.76-3.94-.61,1.21,3.79,5.3s-3.33.76-3.94,2.58a4.82,4.82,0,0,0-.15,3l-2.58,2.27Z" transform="translate(-247.8 -149.96)" style="fill:none;stroke:#263238;stroke-linecap:round;stroke-linejoin:round"/><line x1="163.91" y1="110.42" x2="164.06" y2="112.84" style="fill:#fff"/><line x1="163.91" y1="110.42" x2="164.06" y2="112.84" style="fill:none;stroke:#263238;stroke-linecap:round;stroke-linejoin:round"/><line x1="166.63" y1="105.87" x2="166.79" y2="108.6" style="fill:#fff"/><line x1="166.63" y1="105.87" x2="166.79" y2="108.6" style="fill:none;stroke:#263238;stroke-linecap:round;stroke-linejoin:round"/><line x1="161.79" y1="112.08" x2="161.64" y2="113.14" style="fill:#fff"/><line x1="161.79" y1="112.08" x2="161.64" y2="113.14" style="fill:none;stroke:#263238;stroke-linecap:round;stroke-linejoin:round"/><polygon points="156.48 127.39 158.45 124.66 155.12 120.26 152.69 121.78 156.48 127.39" style="fill:#fff"/><polygon points="156.48 127.39 158.45 124.66 155.12 120.26 152.69 121.78 156.48 127.39" style="fill:none;stroke:#263238;stroke-linecap:round;stroke-linejoin:round"/><path d="M401,271.14l5.15,7.42s-18.32,14.88-21.65,16.7-4.55,2.58-5,2.73-10.94-18.83-13.36-24.28,7.83-30.59,7.83-30.59,6.72,18.11,8.53,23.71a59.19,59.19,0,0,0,4.88,10.7Z" transform="translate(-247.8 -149.96)" style="fill:#30a0f2"/><g style="clip-path:url(#clip-path-88)"><g style="opacity:0.19999699294567108"><g style="clip-path:url(#clip-path-89)"><path d="M403.87,280.36c-5.33.38-15.3.87-17.71.87-3.16,0-7.82,3.49-7.82,3.49a2,2,0,0,1-2.5-1c-.83-1.66,1.16-5.16,1.16-5.16a10.26,10.26,0,0,1-3.66-1.66c-1-1-2.5-23.15-2.5-23.15l-.95.24c-2.56,7.51-5.15,16.68-3.8,19.72,2.43,5.45,12.9,24.43,13.36,24.28s1.66-.91,5-2.73c2.61-1.42,14.44-10.88,19.42-14.9" transform="translate(-247.8 -149.96)"/></g></g></g><path d="M401,271.14l5.15,7.42s-18.32,14.88-21.65,16.7-4.55,2.58-5,2.73-10.94-18.83-13.36-24.28,7.83-30.59,7.83-30.59,6.72,18.11,8.53,23.71a59.19,59.19,0,0,0,4.88,10.7Z" transform="translate(-247.8 -149.96)" style="fill:none;stroke:#263238;stroke-linecap:round;stroke-linejoin:round"/><path d="M387.56,277.3s-7.27,3-8.48,4.85a10.66,10.66,0,0,0-1.37,4.54" transform="translate(-247.8 -149.96)" style="fill:none;stroke:#263238;stroke-linecap:round;stroke-linejoin:round"/><path d="M366.73,277.89a24.31,24.31,0,0,1,1.73-5.84c1.19-2.37,4.27-22.77,5.46-26.09a4.51,4.51,0,0,0,.24-2.15,5.44,5.44,0,0,0-.74-1.61c-1.34-1.93-9.07-8-11.75-10s-7.13-3.72-9.81-3.72-8.33.15-8.33.15a94.86,94.86,0,0,1-9.22,3.87c-3,.89-16.05,6.69-16.05,7.73s2.67,55.31,2.67,55.31l-2.38,36.88a182.77,182.77,0,0,0,17.85-7.73c7-3.72,15.76-13.53,15.76-13.53s6.54,6.24,9.36,8.32,10,10.11,10,10.11l-5.8-41Z" transform="translate(-247.8 -149.96)" style="fill:#30a0f2"/><path d="M338.32,231.91s-4.31,15.54-2.59,22.16,9.5,17.55,9.5,17.55" transform="translate(-247.8 -149.96)" style="fill:none;stroke:#263238;stroke-linecap:round;stroke-linejoin:round"/><path d="M358.76,231s10.36,17.85,9.49,25.33-8.34,15.83-8.34,15.83" transform="translate(-247.8 -149.96)" style="fill:none;stroke:#263238;stroke-linecap:round;stroke-linejoin:round"/><g style="opacity:0.19999699294567108"><g style="clip-path:url(#clip-path-90)"><path d="M369.18,270.57s-19.48,12.82-20.31,13.32-21.32-5.66-19-4.33,21.31,11.32,21.31,11.32l12-3.49,3.33,5.66-.83-6.33Z" transform="translate(-247.8 -149.96)"/></g></g><g style="opacity:0.19999699294567108"><g style="clip-path:url(#clip-path-91)"><path d="M324.06,311.69c1.33-1,2.66-9.15,2.5-11.15s0-28,.33-31.3-4,9-4,9l1.33-15-4.41,9.47c.59,12.06,1.12,22.87,1.12,22.87l-1.1,17.13a13.5,13.5,0,0,0,4.23-1" transform="translate(-247.8 -149.96)"/></g></g><path d="M343.53,228.67a94.86,94.86,0,0,1-9.22,3.87c-3,.89-16.05,6.69-16.05,7.73s2.67,55.31,2.67,55.31l-2.38,36.88a182.77,182.77,0,0,0,17.85-7.73c7-3.72,15.76-13.53,15.76-13.53s6.54,6.24,9.36,8.32,10,10.11,10,10.11l-5.8-41,1-10.7a24.31,24.31,0,0,1,1.73-5.84c1.19-2.37,4.27-22.77,5.46-26.09a4.51,4.51,0,0,0,.24-2.15,5.44,5.44,0,0,0-.74-1.61c-1.34-1.93-9.07-8-11.75-10s-7.13-3.72-9.81-3.72-8.33.15-8.33.15" transform="translate(-247.8 -149.96)" style="fill:none"/><path d="M366.73,277.89a24.31,24.31,0,0,1,1.73-5.84c1.19-2.37,4.27-22.77,5.46-26.09a4.51,4.51,0,0,0,.24-2.15,5.44,5.44,0,0,0-.74-1.61c-1.34-1.93-9.07-8-11.75-10s-7.13-3.72-9.81-3.72-8.33.15-8.33.15a94.86,94.86,0,0,1-9.22,3.87c-3,.89-16.05,6.69-16.05,7.73s2.67,55.31,2.67,55.31l-2.38,36.88a182.77,182.77,0,0,0,17.85-7.73c7-3.72,15.76-13.53,15.76-13.53s6.54,6.24,9.36,8.32,10,10.11,10,10.11l-5.8-41Z" transform="translate(-247.8 -149.96)" style="fill:none;stroke:#263238;stroke-linecap:round;stroke-linejoin:round"/><path d="M350.84,286.31s.5,13.29.79,20.84" transform="translate(-247.8 -149.96)" style="fill:none;stroke:#263238;stroke-linecap:round;stroke-linejoin:round"/><path d="M353.4,288.31c0,.49-.29.88-.65.88s-.64-.39-.64-.88.29-.89.64-.89.65.4.65.89" transform="translate(-247.8 -149.96)" style="fill:#263238"/><path d="M353.72,296.35c0,.49-.29.88-.65.88s-.64-.39-.64-.88.29-.89.64-.89.65.4.65.89" transform="translate(-247.8 -149.96)" style="fill:#263238"/><path d="M354.52,305.52c0,.48-.29.88-.64.88s-.64-.4-.64-.88.28-.89.64-.89.64.4.64.89" transform="translate(-247.8 -149.96)" style="fill:#263238"/><path d="M340.8,209.32s-1.64-2.08-2.53-.14a11.33,11.33,0,0,0-.3,7c.59,1.49,2.38,2.53,2.53,1.64s.3-8.51.3-8.51" transform="translate(-247.8 -149.96)" style="fill:#fff"/><g style="clip-path:url(#clip-path-92)"><g style="opacity:0.19999699294567108"><g style="clip-path:url(#clip-path-93)"><path d="M340.8,209.32s-1.64-2.08-2.53-.14a11.33,11.33,0,0,0-.3,7c.59,1.49,2.38,2.53,2.53,1.64s.3-8.51.3-8.51" transform="translate(-247.8 -149.96)"/></g></g></g><path d="M340.8,209.32s-1.64-2.08-2.53-.14a11.33,11.33,0,0,0-.3,7c.59,1.49,2.38,2.53,2.53,1.64S340.8,209.32,340.8,209.32Z" transform="translate(-247.8 -149.96)" style="fill:none;stroke:#263238;stroke-linecap:round;stroke-linejoin:round"/><path d="M342.19,229.27s-.14,10.11.3,18.29-.74,14.27,1.34,18.58,7,18.14,7.58,17.25,10-16.5,11.15-21.86-1.48-21.85-3-25.27-1.93-6.4-3.72-7.29-10-4.76-13.68.3" transform="translate(-247.8 -149.96)" style="fill:#fff"/><path d="M342.19,229.27s-.14,10.11.3,18.29-.74,14.27,1.34,18.58,7,18.14,7.58,17.25,10-16.5,11.15-21.86-1.48-21.85-3-25.27-1.93-6.4-3.72-7.29S345.91,224.21,342.19,229.27Z" transform="translate(-247.8 -149.96)" style="fill:none;stroke:#263238;stroke-linecap:round;stroke-linejoin:round"/><path d="M341.9,228.37a12.89,12.89,0,0,0,1.78,5.65c1.64,2.53,6.84,10.41,8,10s4.31-9.67,5.21-12.94,1.93-8.92,1.93-8.92-4,4.61-6.84,5.65-10.11.59-10.11.59" transform="translate(-247.8 -149.96)" style="fill:#fff"/><path d="M341.9,228.37a12.89,12.89,0,0,0,1.78,5.65c1.64,2.53,6.84,10.41,8,10s4.31-9.67,5.21-12.94,1.93-8.92,1.93-8.92-4,4.61-6.84,5.65S341.9,228.37,341.9,228.37Z" transform="translate(-247.8 -149.96)" style="fill:none;stroke:#263238;stroke-linecap:round;stroke-linejoin:round"/><g style="opacity:0.10000599920749664"><g style="clip-path:url(#clip-path-94)"><path d="M341.9,228.37a12.89,12.89,0,0,0,1.78,5.65c1.64,2.53,6.84,10.41,8,10s4.31-9.67,5.21-12.94,1.93-8.92,1.93-8.92-4,4.61-6.84,5.65-10.11.59-10.11.59" transform="translate(-247.8 -149.96)"/></g></g><g style="opacity:0.19999699294567108"><g style="clip-path:url(#clip-path-95)"><path d="M352.55,233c3.14-3.29,5.69-9,5.69-9l-.84-.39c-1.43,1.44-3.64,3.46-5.39,4.11-2.83,1-10.11.6-10.11.6a12.87,12.87,0,0,0,1.78,5.64c.62.95,1.73,2.66,2.95,4.39a66.81,66.81,0,0,0,5.92-5.37" transform="translate(-247.8 -149.96)"/></g></g><path d="M362.42,213.21l0,0c1.33-3.56,3-8.43,3-10.58,0-3.57-4.16-9.22-10.11-9.81s-11.15,3.72-12.79,7.14-3.72,19.32-3.72,22.45,2.24,8.77,7.89,8.92a11.36,11.36,0,0,0,9.66-4.46c.74-1.19,3.12-5.06,3.12-5.06a27.19,27.19,0,0,0,3.87-1.34c2.23-1,1.93-4.31,1.93-6.69s-2.82-.59-2.82-.59" transform="translate(-247.8 -149.96)" style="fill:#fff"/><g style="clip-path:url(#clip-path-96)"><g style="opacity:0.10000599920749664"><g style="clip-path:url(#clip-path-97)"><path d="M362.42,213.21l0,0c1.33-3.56,3-8.43,3-10.58,0-3.57-4.16-9.22-10.11-9.81s-11.15,3.72-12.79,7.14-3.72,19.32-3.72,22.45,2.24,8.77,7.89,8.92a11.36,11.36,0,0,0,9.66-4.46c.74-1.19,3.12-5.06,3.12-5.06a27.19,27.19,0,0,0,3.87-1.34c2.23-1,1.93-4.31,1.93-6.69s-2.82-.59-2.82-.59" transform="translate(-247.8 -149.96)"/></g></g><g style="opacity:0.19999699294567108"><g style="clip-path:url(#clip-path-98)"><path d="M344.47,206.85c.45-1,.3-5.54,4.64-9.88a14.07,14.07,0,0,1,8.09-3.75,10.2,10.2,0,0,0-1.92-.38c-5.95-.6-11.15,3.72-12.79,7.14s-3.71,19.32-3.71,22.45,2.23,8.77,7.88,8.92a11.85,11.85,0,0,0,8.68-3.29,2.32,2.32,0,0,0-.54.19,17.39,17.39,0,0,1-7.49,1.95,6.24,6.24,0,0,1-6.58-5.69c-.45-3.89.89-9.58,2.24-11.37s1-5.24,1.5-6.29" transform="translate(-247.8 -149.96)"/></g></g></g><path d="M362.42,213.21l0,0c1.33-3.56,3-8.43,3-10.58,0-3.57-4.16-9.22-10.11-9.81s-11.15,3.72-12.79,7.14-3.72,19.32-3.72,22.45,2.24,8.77,7.89,8.92a11.36,11.36,0,0,0,9.66-4.46c.74-1.19,3.12-5.06,3.12-5.06a27.19,27.19,0,0,0,3.87-1.34c2.23-1,1.93-4.31,1.93-6.69S362.42,213.21,362.42,213.21Z" transform="translate(-247.8 -149.96)" style="fill:none;stroke:#263238;stroke-linecap:round;stroke-linejoin:round"/><path d="M347.06,214.84s-1.93,1.64-1.34,3.14a3.12,3.12,0,0,0,3.58,1.64c1.2-.3,1.34-3.43,1.34-3.43" transform="translate(-247.8 -149.96)" style="fill:none;stroke:#263238;stroke-linecap:round;stroke-linejoin:round"/><line x1="96.73" y1="71.89" x2="101.21" y2="73.23" style="fill:none;stroke:#263238;stroke-linecap:round;stroke-linejoin:round"/><path d="M349.15,209.18a8.64,8.64,0,0,0-3.28-2.09,9.2,9.2,0,0,0-2.68-.15" transform="translate(-247.8 -149.96)" style="fill:none;stroke:#263238;stroke-linecap:round;stroke-linejoin:round"/><path d="M352.14,210.07a6.33,6.33,0,0,1,3.73,0c2.23.6,2.68,1.94,2.68,1.94" transform="translate(-247.8 -149.96)" style="fill:none;stroke:#263238;stroke-linecap:round;stroke-linejoin:round"/><path d="M346.3,211.35c-.13.68-.6,1.17-1.05,1.08s-.69-.71-.56-1.4.61-1.17,1.05-1.08.7.71.56,1.4" transform="translate(-247.8 -149.96)" style="fill:#263238"/><path d="M354.37,213.35c-.13.69-.6,1.18-1.05,1.09s-.69-.72-.56-1.4.61-1.18,1.05-1.09.7.72.56,1.4" transform="translate(-247.8 -149.96)" style="fill:#263238"/><path d="M355.28,192.84c-5.95-.6-11.15,3.72-12.79,7.14a40.94,40.94,0,0,0-1.93,8c1-1.37,3-4.12,3-5a11.26,11.26,0,0,1,3-6.54c2.08-2.08,3-1.79,4.75-.3s3.57,3,6.4,3,5.65-.15,5.35,2.38-2.08,5.65-2.08,7-.89,7.29,0,6.39a23,23,0,0,0,1.53-1.77c1.31-3.54,2.93-8.3,2.93-10.42,0-3.57-4.16-9.22-10.11-9.81" transform="translate(-247.8 -149.96)" style="fill:#263238"/><polyline points="96.63 97.89 103.91 94.02 113.13 97.44" style="fill:none;stroke:#263238;stroke-linecap:round;stroke-linejoin:round"/><polygon points="99.45 96.4 103.91 100.86 100.34 126.14 103.61 133.43 107.93 126.29 105.55 100.27 108.37 95.96 103.91 94.02 99.45 96.4" style="fill:#263238"/><path d="M340.54,309.7,300.88,307s-7.12,29.34-6.94,30.94,4,2.47,8.72,3.74c6.58,1.78,33.08,4.62,36.63,4.45s3-5.87,3.21-6.94,2.31-29,2.31-29Z" transform="translate(-247.8 -149.96)" style="fill:#fff"/><g style="clip-path:url(#clip-path-99)"><g style="opacity:0.5"><g style="clip-path:url(#clip-path-100)"><path d="M340.54,309.7,300.88,307s-7.12,29.34-6.94,30.94,4,2.47,8.72,3.74c6.58,1.78,33.08,4.62,36.63,4.45s3-5.87,3.21-6.94,2.31-29,2.31-29Z" transform="translate(-247.8 -149.96)"/></g></g></g><path d="M340.54,309.7,300.88,307s-7.12,29.34-6.94,30.94,4,2.47,8.72,3.74c6.58,1.78,33.08,4.62,36.63,4.45s3-5.87,3.21-6.94,2.31-29,2.31-29Z" transform="translate(-247.8 -149.96)" style="fill:none;stroke:#263238;stroke-linecap:round;stroke-linejoin:round"/><path d="M340.54,309.7s-5,33.79-5,35,7.11,2.32,8,0,3.92-33.61,3.92-34.15-6.94-.88-6.94-.88" transform="translate(-247.8 -149.96)" style="fill:#fff"/><g style="clip-path:url(#clip-path-101)"><g style="opacity:0.3000029921531677"><g style="clip-path:url(#clip-path-102)"><path d="M340.54,309.7s-5,33.79-5,35,7.11,2.32,8,0,3.92-33.61,3.92-34.15-6.94-.88-6.94-.88" transform="translate(-247.8 -149.96)"/></g></g></g><path d="M340.54,309.7s-5,33.79-5,35,7.11,2.32,8,0,3.92-33.61,3.92-34.15S340.54,309.7,340.54,309.7Z" transform="translate(-247.8 -149.96)" style="fill:none;stroke:#263238;stroke-linecap:round;stroke-linejoin:round"/><polygon points="80.65 84.86 95.41 155.64 93.63 176.63 96.83 176.81 98.97 154.75 84.56 83.43 80.65 84.86" style="fill:#263238"/><polygon points="80.65 84.86 95.41 155.64 93.63 176.63 96.83 176.81 98.97 154.75 84.56 83.43 80.65 84.86" style="fill:none;stroke:#263238;stroke-linecap:round;stroke-linejoin:round"/><path d="M331,303.46h3.87c.45,0,4.76-2.67,6.1-2.67s4.31.14,5.5.14,1.93-1.18,1.93.3-1.78,2.38-2.68,2.53-4.31.59-4.31.59,7.88,3.13,8.18,3.57.45,2.38-.6,2.68-2.82.59-2.82.59-.45,1.49-.74,2.53a2.57,2.57,0,0,1-1.34,1.49,10.16,10.16,0,0,1-1.79,1.63c-.74.45-4-.14-5.8-.59s-6.39-3.42-6.84-3.72-2.52-2.38-2.52-2.38Z" transform="translate(-247.8 -149.96)" style="fill:#fff"/><g style="clip-path:url(#clip-path-103)"><g style="opacity:0.10000599920749664"><g style="clip-path:url(#clip-path-104)"><path d="M331,303.46h3.87c.45,0,4.76-2.67,6.1-2.67s4.31.14,5.5.14,1.93-1.18,1.93.3-1.78,2.38-2.68,2.53-4.31.59-4.31.59,7.88,3.13,8.18,3.57.45,2.38-.6,2.68-2.82.59-2.82.59-.45,1.49-.74,2.53a2.57,2.57,0,0,1-1.34,1.49,10.16,10.16,0,0,1-1.79,1.63c-.74.45-4-.14-5.8-.59s-6.39-3.42-6.84-3.72-2.52-2.38-2.52-2.38Z" transform="translate(-247.8 -149.96)"/></g></g><g style="opacity:0.19999699294567108"><g style="clip-path:url(#clip-path-105)"><path d="M342.34,316.84a10.16,10.16,0,0,0,1.79-1.63,2.57,2.57,0,0,0,1.34-1.49c.29-1,.74-2.53.74-2.53s1.78-.29,2.82-.59a1.09,1.09,0,0,0,.72-.84c-1.58-.13-3.72-.28-4.41-.28-1.13,0-1.13,3-1.41,4a1.77,1.77,0,0,1-2.83.85c-1.42-.85-9.76-4.53-10-5s.42-3.4,1.13-4,5.51-3.12,5.51-3.12l-.2-.07a20.67,20.67,0,0,1-2.59,1.27H331l-3.86,6.69s2.08,2.09,2.52,2.38,5.06,3.27,6.84,3.72,5.06,1,5.8.59" transform="translate(-247.8 -149.96)"/></g></g><g style="opacity:0.19999699294567108"><g style="clip-path:url(#clip-path-106)"><path d="M344.07,303.11c-3.25.43-2.62,1.24-2.62,1.24s3.42-.44,4.31-.59,2.68-1,2.68-2.53a1.15,1.15,0,0,0,0-.19c-1,1-1.61,1.71-4.36,2.07" transform="translate(-247.8 -149.96)"/></g></g></g><path d="M331,303.46h3.87c.45,0,4.76-2.67,6.1-2.67s4.31.14,5.5.14,1.93-1.18,1.93.3-1.78,2.38-2.68,2.53-4.31.59-4.31.59,7.88,3.13,8.18,3.57.45,2.38-.6,2.68-2.82.59-2.82.59-.45,1.49-.74,2.53a2.57,2.57,0,0,1-1.34,1.49,10.16,10.16,0,0,1-1.79,1.63c-.74.45-4-.14-5.8-.59s-6.39-3.42-6.84-3.72-2.52-2.38-2.52-2.38Z" transform="translate(-247.8 -149.96)" style="fill:none;stroke:#263238;stroke-linecap:round;stroke-linejoin:round"/><polygon points="81.46 150.97 83.99 153.35 79.82 161.08 77.3 159.45 81.46 150.97" style="fill:#fff"/><polygon points="81.46 150.97 83.99 153.35 79.82 161.08 77.3 159.45 81.46 150.97" style="fill:none;stroke:#263238;stroke-linecap:round;stroke-linejoin:round"/><path d="M321.23,238.19s-8.18,3.57-8.62,5.35-15.76,42.2-15.76,43.69,17.69,15.34,21.41,18.46a51.17,51.17,0,0,0,6.83,4.91l5.8-8.62s-10.12-12-11.75-15a32.83,32.83,0,0,0-3.93-5.48l12-23.55" transform="translate(-247.8 -149.96)" style="fill:#30a0f2"/><g style="clip-path:url(#clip-path-107)"><g style="opacity:0.19999699294567108"><g style="clip-path:url(#clip-path-108)"><path d="M325.09,310.6l.81-1.19-23.26-20.52s2.88-5.76,7.19-6-6,0-5.18-.58S321.06,261,321.06,261s.28-4.31-2.31-10.93-5.18-7.48-5.18-7.48l-.12-.08a2.36,2.36,0,0,0-.84,1.06c-.45,1.79-15.76,42.2-15.76,43.69s17.69,15.34,21.41,18.46a51.17,51.17,0,0,0,6.83,4.91" transform="translate(-247.8 -149.96)"/></g></g></g><path d="M321.23,238.19s-8.18,3.57-8.62,5.35-15.76,42.2-15.76,43.69,17.69,15.34,21.41,18.46a51.17,51.17,0,0,0,6.83,4.91l5.8-8.62s-10.12-12-11.75-15a32.83,32.83,0,0,0-3.93-5.48l12-23.55" transform="translate(-247.8 -149.96)" style="fill:none;stroke:#263238;stroke-linecap:round;stroke-linejoin:round"/><line x1="98.37" y1="188.48" x2="102.44" y2="179.59" style="fill:#fff"/><line x1="98.37" y1="188.48" x2="102.44" y2="179.59" style="fill:none;stroke:#263238;stroke-linecap:round;stroke-linejoin:round"/><line x1="0.5" y1="294.22" x2="355.48" y2="294.22" style="fill:none;stroke:#263238;stroke-linecap:round;stroke-linejoin:round"/><path d="M482.54,320.44a9.12,9.12,0,0,0-9.12,9.13c0,5,9.12,18,9.12,18s9.12-13,9.12-18a9.12,9.12,0,0,0-9.12-9.13m0,12.49a3.68,3.68,0,1,1,3.68-3.68,3.68,3.68,0,0,1-3.68,3.68" transform="translate(-247.8 -149.96)" style="fill:#263238"/><path d="M482.54,320.44a9.12,9.12,0,0,0-9.12,9.13c0,5,9.12,18,9.12,18s9.12-13,9.12-18A9.12,9.12,0,0,0,482.54,320.44Zm0,12.49a3.68,3.68,0,1,1,3.68-3.68A3.68,3.68,0,0,1,482.54,332.93Z" transform="translate(-247.8 -149.96)" style="fill:none;stroke:#263238;stroke-miterlimit:10"/><path d="M526.35,331.46a9.12,9.12,0,0,0-9.12,9.12c0,5,9.12,18,9.12,18s9.13-13,9.13-18a9.12,9.12,0,0,0-9.13-9.12m0,12.49a3.68,3.68,0,1,1,3.68-3.68,3.68,3.68,0,0,1-3.68,3.68" transform="translate(-247.8 -149.96)" style="fill:#263238"/><path d="M526.35,331.46a9.12,9.12,0,0,0-9.12,9.12c0,5,9.12,18,9.12,18s9.13-13,9.13-18A9.12,9.12,0,0,0,526.35,331.46Zm0,12.49a3.68,3.68,0,1,1,3.68-3.68A3.68,3.68,0,0,1,526.35,344Z" transform="translate(-247.8 -149.96)" style="fill:none;stroke:#263238;stroke-miterlimit:10"/><text transform="translate(247.13 128)" style="font-size:4px;fill:#263238;font-family:Calibri-Bold, Calibri;font-weight:700">500 Meters</text><text transform="translate(247.13 132.43)" style="font-size:4px;font-family:Calibri-Bold, Calibri;font-weight:700">10 Mins</text></svg>